<?xml version="1.0" encoding="UTF-8" standalone="no"?>
<!-- Created with Inkscape (http://www.inkscape.org/) -->

<svg
   xmlns:dc="http://purl.org/dc/elements/1.1/"
   xmlns:cc="http://creativecommons.org/ns#"
   xmlns:rdf="http://www.w3.org/1999/02/22-rdf-syntax-ns#"
   xmlns:svg="http://www.w3.org/2000/svg"
   xmlns="http://www.w3.org/2000/svg"
   xmlns:sodipodi="http://sodipodi.sourceforge.net/DTD/sodipodi-0.dtd"
   xmlns:inkscape="http://www.inkscape.org/namespaces/inkscape"
   width="744.09448819"
   height="1052.3622047"
   id="svg2"
   version="1.1"
   inkscape:version="0.48.4 r9939"
   sodipodi:docname="remaining_units.svg">
  <defs
     id="defs4">
    <filter
       inkscape:collect="always"
       id="filter3998"
       x="-0.16761134"
       width="1.3352227"
       y="-0.33522267"
       height="1.6704453">
      <feGaussianBlur
         inkscape:collect="always"
         stdDeviation="8.3805668"
         id="feGaussianBlur4000" />
    </filter>
  </defs>
  <sodipodi:namedview
     id="base"
     pagecolor="#ffffff"
     bordercolor="#666666"
     borderopacity="1.0"
     inkscape:pageopacity="0.0"
     inkscape:pageshadow="2"
     inkscape:zoom="0.7"
     inkscape:cx="354.08408"
     inkscape:cy="-94.543047"
     inkscape:document-units="px"
     inkscape:current-layer="layer1"
     showgrid="true"
     inkscape:window-width="1280"
     inkscape:window-height="745"
     inkscape:window-x="0"
     inkscape:window-y="27"
     inkscape:window-maximized="1">
    <inkscape:grid
       type="xygrid"
       id="grid2985"
       empspacing="5"
       visible="true"
       enabled="true"
       snapvisiblegridlinesonly="true" />
  </sodipodi:namedview>
  <metadata
     id="metadata7">
    <rdf:RDF>
      <cc:Work
         rdf:about="">
        <dc:format>image/svg+xml</dc:format>
        <dc:type
           rdf:resource="http://purl.org/dc/dcmitype/StillImage" />
        <dc:title></dc:title>
      </cc:Work>
    </rdf:RDF>
  </metadata>
  <g
     inkscape:label="Layer 1"
     inkscape:groupmode="layer"
     id="layer1">
    <g
       id="g3854"
       transform="translate(0,344)">
      <path
         sodipodi:nodetypes="czccszccc"
         inkscape:connector-curvature="0"
         id="path3982"
         d="m 263,42.362183 c 9,10 14,36 14,51 0,14.999997 -1,24.999997 -14,38.999997 5,0 64,0 68.6875,0.0128 l 0.3125,0 c 10,0 18.1402,-18.53101 19,-40.012813 0.8598,-21.48181 -9,-50 -19,-49.98719 l 0,0 c -7,-0.01279 -64,-0.0128 -69,-0.01279 z"
         style="fill:#f78484;fill-opacity:1;stroke:#000000;stroke-width:2.5;stroke-miterlimit:4;stroke-opacity:1" />
      <path
         style="fill:none;stroke:#000000;stroke-width:2.5;stroke-miterlimit:4;stroke-opacity:1"
         d="m 248.5625,59.875 c -0.17944,7.736836 10.20751,12.680568 11.125,15.46875 0.91748,2.788182 1.06941,0.515261 0,3.9375 C 258.61809,82.703489 240.11912,90.070003 245,97.375 c 4.88088,7.305 15,9.98718 15,14.98718 0,5 -9.86746,5.83806 -10,10.01282 -0.13254,4.17476 7.07084,8.22198 9.6875,10 l 258.3125,0 c 22.16,0 40,-17.84 40,-40 l 0,-10 c 0,-22.16 -17.84,-40 -40,-40 l -258,0 c -2,2.987183 -11.25806,9.763164 -11.4375,17.5 z"
         id="path3856"
         inkscape:connector-curvature="0"
         sodipodi:nodetypes="zzzzzzcsssscz" />
      <path
         sodipodi:nodetypes="zzzzzzcsssscz"
         inkscape:connector-curvature="0"
         id="path3858"
         d="m 232.31038,59.875 c -0.17944,7.736836 10.20751,12.680568 11.125,15.46875 0.91748,2.788182 1.06941,0.515261 0,3.9375 -1.06941,3.422239 -19.56838,10.788753 -14.6875,18.09375 4.88088,7.305 15,9.98718 15,14.98718 0,5 -9.86746,5.83806 -10,10.01282 -0.13254,4.17476 7.07084,8.22198 9.6875,10 l -121.6875,0 c -22.16,0 -40,-17.84 -40,-40 l 0,-10 c 0,-22.16 17.84,-40 40,-40 l 122,0 c -2,2.987183 -11.25806,9.763164 -11.4375,17.5 z"
         style="fill:#4cff4c;fill-opacity:1;stroke:#000000;stroke-width:2.5;stroke-miterlimit:4;stroke-opacity:1" />
      <rect
         ry="0"
         y="58.362183"
         x="100"
         height="60"
         width="120"
         id="rect4015"
         style="fill:#ffffff;fill-opacity:1;stroke:none;filter:url(#filter3998)" />
      <flowRoot
         xml:space="preserve"
         id="flowRoot3860"
         style="font-size:39.99999619px;font-style:normal;font-variant:normal;font-weight:normal;font-stretch:normal;text-align:center;line-height:125%;letter-spacing:0px;word-spacing:0px;writing-mode:lr-tb;text-anchor:middle;fill:#000000;fill-opacity:1;stroke:none;font-family:Serif;-inkscape-font-specification:Serif"
         transform="matrix(1.6736842,0,0,1.6736842,-79.355884,-51.012607)"><flowRegion
           id="flowRegion3862"><rect
             id="rect3864"
             width="77.781746"
             height="56.063465"
             x="104.55079"
             y="57.361923"
             style="font-size:39.99999619px;font-style:normal;font-variant:normal;font-weight:normal;font-stretch:normal;text-align:center;line-height:125%;writing-mode:lr-tb;text-anchor:middle;font-family:Serif;-inkscape-font-specification:Serif" /></flowRegion><flowPara
           id="flowPara3866">1.5</flowPara></flowRoot>      <rect
         style="fill:#ffffff;fill-opacity:1;stroke:none;filter:url(#filter3998)"
         id="rect3984"
         width="120"
         height="60"
         x="300"
         y="402.36218"
         transform="matrix(1.1827767,0,0,1,-73.156762,-344)"
         ry="0" />
      <flowRoot
         transform="matrix(1.6736842,0,0,1.6736842,128.77018,-48.345173)"
         style="font-size:39.99999619px;font-style:normal;font-variant:normal;font-weight:normal;font-stretch:normal;text-align:center;line-height:125%;letter-spacing:0px;word-spacing:0px;writing-mode:lr-tb;text-anchor:middle;fill:#9a0000;fill-opacity:1;stroke:none;font-family:Serif;-inkscape-font-specification:Serif"
         id="flowRoot3868"
         xml:space="preserve"><flowRegion
           id="flowRegion3870"><rect
             style="font-size:39.99999619px;font-style:normal;font-variant:normal;font-weight:normal;font-stretch:normal;text-align:center;line-height:125%;writing-mode:lr-tb;text-anchor:middle;fill:#9a0000;fill-opacity:1;font-family:Serif;-inkscape-font-specification:Serif"
             y="55.78997"
             x="58.093288"
             height="53.773582"
             width="161.32074"
             id="rect3872" /></flowRegion><flowPara
           id="flowPara3874">0.15</flowPara></flowRoot>      <flowRoot
         xml:space="preserve"
         id="flowRoot3876"
         style="font-size:39.99999619px;font-style:normal;font-variant:normal;font-weight:normal;font-stretch:normal;text-align:center;line-height:125%;letter-spacing:0px;word-spacing:0px;writing-mode:lr-tb;text-anchor:middle;fill:#000000;fill-opacity:1;stroke:none;font-family:Serif;-inkscape-font-specification:Serif"
         transform="matrix(1.6736842,0,0,1.6736842,388.77018,-48.345173)"><flowRegion
           id="flowRegion3878"><rect
             id="rect3880"
             width="161.32074"
             height="53.773582"
             x="58.093288"
             y="55.78997"
             style="font-size:39.99999619px;font-style:normal;font-variant:normal;font-weight:normal;font-stretch:normal;text-align:center;line-height:125%;writing-mode:lr-tb;text-anchor:middle;font-family:Serif;-inkscape-font-specification:Serif" /></flowRegion><flowPara
           id="flowPara3882">kg</flowPara></flowRoot>      <path
         style="fill:#6fff6f;fill-opacity:1;stroke:#000000;stroke-width:2.5;stroke-miterlimit:4;stroke-opacity:1"
         d="m 248.5625,59.874987 c -0.17944,7.73684 10.20751,12.68057 11.125,15.46875 0.91748,2.78819 1.06941,0.51526 0,3.9375 -1.06941,3.42224 -19.56838,10.78876 -14.6875,18.09375 4.88088,7.305003 15,9.987183 15,14.987183 0,5 -9.86746,5.83806 -10,10.01282 -0.13254,4.17476 7.07084,8.22198 9.6875,10 l 0.3125,0 c 10,0 18.1402,-18.53101 19,-40.012813 0.8598,-21.48181 -9,-50 -19,-49.98719 l 0,0 c -2,2.98719 -11.25806,9.76317 -11.4375,17.5 z"
         id="path3884-7"
         inkscape:connector-curvature="0"
         sodipodi:nodetypes="zzzzzzcszccz" />
    </g>
    <g
       id="g3926"
       transform="translate(0,24)">
      <path
         style="fill:none;stroke:#000000;stroke-width:2.5;stroke-miterlimit:4;stroke-opacity:1"
         d="m 248.5625,59.875 c -0.17944,7.736836 10.20751,12.680568 11.125,15.46875 0.91748,2.788182 1.06941,0.515261 0,3.9375 C 258.61809,82.703489 240.11912,90.070003 245,97.375 c 4.88088,7.305 15,9.98718 15,14.98718 0,5 -9.86746,5.83806 -10,10.01282 -0.13254,4.17476 7.07084,8.22198 9.6875,10 l 258.3125,0 c 22.16,0 40,-17.84 40,-40 l 0,-10 c 0,-22.16 -17.84,-40 -40,-40 l -258,0 c -2,2.987183 -11.25806,9.763164 -11.4375,17.5 z"
         id="path3928"
         inkscape:connector-curvature="0"
         sodipodi:nodetypes="zzzzzzcsssscz" />
      <path
         sodipodi:nodetypes="zzzzzzcsssscz"
         inkscape:connector-curvature="0"
         id="path3930"
         d="m 232.31038,59.875 c -0.17944,7.736836 10.20751,12.680568 11.125,15.46875 0.91748,2.788182 1.06941,0.515261 0,3.9375 -1.06941,3.422239 -19.56838,10.788753 -14.6875,18.09375 4.88088,7.305 15,9.98718 15,14.98718 0,5 -9.86746,5.83806 -10,10.01282 -0.13254,4.17476 7.07084,8.22198 9.6875,10 l -121.6875,0 c -22.16,0 -40,-17.84 -40,-40 l 0,-10 c 0,-22.16 17.84,-40 40,-40 l 122,0 c -2,2.987183 -11.25806,9.763164 -11.4375,17.5 z"
         style="fill:none;fill-opacity:1;stroke:#000000;stroke-width:2.50000000000000000;stroke-miterlimit:4;stroke-opacity:1" />
      <flowRoot
         xml:space="preserve"
         id="flowRoot3932"
         style="font-size:39.99999619px;font-style:normal;font-variant:normal;font-weight:normal;font-stretch:normal;text-align:center;line-height:125%;letter-spacing:0px;word-spacing:0px;writing-mode:lr-tb;text-anchor:middle;fill:#000000;fill-opacity:1;stroke:none;font-family:Serif;-inkscape-font-specification:Serif"
         transform="matrix(1.6736842,0,0,1.6736842,-79.355884,-51.012607)"><flowRegion
           id="flowRegion3934"><rect
             id="rect3936"
             width="77.781746"
             height="56.063465"
             x="104.55079"
             y="57.361923"
             style="font-size:39.99999619px;font-style:normal;font-variant:normal;font-weight:normal;font-stretch:normal;text-align:center;line-height:125%;writing-mode:lr-tb;text-anchor:middle;font-family:Serif;-inkscape-font-specification:Serif" /></flowRegion><flowPara
           id="flowPara3938">0</flowPara></flowRoot>      <flowRoot
         transform="matrix(1.6736842,0,0,1.6736842,172.77018,-48.345173)"
         style="font-size:39.99999619px;font-style:normal;font-variant:normal;font-weight:normal;font-stretch:normal;text-align:center;line-height:125%;letter-spacing:0px;word-spacing:0px;writing-mode:lr-tb;text-anchor:middle;fill:#000000;fill-opacity:1;stroke:none;font-family:Serif;-inkscape-font-specification:Serif"
         id="flowRoot3940"
         xml:space="preserve"><flowRegion
           id="flowRegion3942"><rect
             style="font-size:39.99999619px;font-style:normal;font-variant:normal;font-weight:normal;font-stretch:normal;text-align:center;line-height:125%;writing-mode:lr-tb;text-anchor:middle;font-family:Serif;-inkscape-font-specification:Serif"
             y="55.78997"
             x="58.093288"
             height="53.773582"
             width="161.32074"
             id="rect3944" /></flowRegion><flowPara
           id="flowPara3946" /></flowRoot>      <flowRoot
         xml:space="preserve"
         id="flowRoot3948"
         style="font-size:39.99999619px;font-style:normal;font-variant:normal;font-weight:normal;font-stretch:normal;text-align:center;line-height:125%;letter-spacing:0px;word-spacing:0px;writing-mode:lr-tb;text-anchor:middle;fill:#000000;fill-opacity:1;stroke:none;font-family:Serif;-inkscape-font-specification:Serif"
         transform="matrix(1.6736842,0,0,1.6736842,388.77018,-48.345173)"><flowRegion
           id="flowRegion3950"><rect
             id="rect3952"
             width="161.32074"
             height="53.773582"
             x="58.093288"
             y="55.78997"
             style="font-size:39.99999619px;font-style:normal;font-variant:normal;font-weight:normal;font-stretch:normal;text-align:center;line-height:125%;writing-mode:lr-tb;text-anchor:middle;font-family:Serif;-inkscape-font-specification:Serif" /></flowRegion><flowPara
           id="flowPara3954">kg</flowPara></flowRoot>    </g>
    <g
       transform="translate(0,184)"
       id="g4017">
      <path
         sodipodi:nodetypes="zzzzzzcsssscz"
         inkscape:connector-curvature="0"
         id="path4021"
         d="m 248.5625,59.875 c -0.17944,7.736836 10.20751,12.680568 11.125,15.46875 0.91748,2.788182 1.06941,0.515261 0,3.9375 C 258.61809,82.703489 240.11912,90.070003 245,97.375 c 4.88088,7.305 15,9.98718 15,14.98718 0,5 -9.86746,5.83806 -10,10.01282 -0.13254,4.17476 7.07084,8.22198 9.6875,10 l 258.3125,0 c 22.16,0 40,-17.84 40,-40 l 0,-10 c 0,-22.16 -17.84,-40 -40,-40 l -258,0 c -2,2.987183 -11.25806,9.763164 -11.4375,17.5 z"
         style="fill:none;stroke:#000000;stroke-width:2.5;stroke-miterlimit:4;stroke-opacity:1" />
      <path
         style="fill:#4cff4c;fill-opacity:1;stroke:#000000;stroke-width:2.5;stroke-miterlimit:4;stroke-opacity:1"
         d="m 232.31038,59.875 c -0.17944,7.736836 10.20751,12.680568 11.125,15.46875 0.91748,2.788182 1.06941,0.515261 0,3.9375 -1.06941,3.422239 -19.56838,10.788753 -14.6875,18.09375 4.88088,7.305 15,9.98718 15,14.98718 0,5 -9.86746,5.83806 -10,10.01282 -0.13254,4.17476 7.07084,8.22198 9.6875,10 l -121.6875,0 c -22.16,0 -40,-17.84 -40,-40 l 0,-10 c 0,-22.16 17.84,-40 40,-40 l 122,0 c -2,2.987183 -11.25806,9.763164 -11.4375,17.5 z"
         id="path4023"
         inkscape:connector-curvature="0"
         sodipodi:nodetypes="zzzzzzcsssscz" />
      <rect
         style="fill:#ffffff;fill-opacity:1;stroke:none;filter:url(#filter3998)"
         id="rect4025"
         width="120"
         height="60"
         x="100"
         y="58.362183"
         ry="0" />
      <flowRoot
         transform="matrix(1.6736842,0,0,1.6736842,-79.355884,-51.012607)"
         style="font-size:39.99999619px;font-style:normal;font-variant:normal;font-weight:normal;font-stretch:normal;text-align:center;line-height:125%;letter-spacing:0px;word-spacing:0px;writing-mode:lr-tb;text-anchor:middle;fill:#000000;fill-opacity:1;stroke:none;font-family:Serif;-inkscape-font-specification:Serif"
         id="flowRoot4027"
         xml:space="preserve"><flowRegion
           id="flowRegion4029"><rect
             style="font-size:39.99999619px;font-style:normal;font-variant:normal;font-weight:normal;font-stretch:normal;text-align:center;line-height:125%;writing-mode:lr-tb;text-anchor:middle;font-family:Serif;-inkscape-font-specification:Serif"
             y="57.361923"
             x="104.55079"
             height="56.063465"
             width="77.781746"
             id="rect4031" /></flowRegion><flowPara
           id="flowPara4033">1.5</flowPara></flowRoot>      <flowRoot
         transform="matrix(1.6736842,0,0,1.6736842,388.77018,-48.345173)"
         style="font-size:39.99999619px;font-style:normal;font-variant:normal;font-weight:normal;font-stretch:normal;text-align:center;line-height:125%;letter-spacing:0px;word-spacing:0px;writing-mode:lr-tb;text-anchor:middle;fill:#000000;fill-opacity:1;stroke:none;font-family:Serif;-inkscape-font-specification:Serif"
         id="flowRoot4045"
         xml:space="preserve"><flowRegion
           id="flowRegion4047"><rect
             style="font-size:39.99999619px;font-style:normal;font-variant:normal;font-weight:normal;font-stretch:normal;text-align:center;line-height:125%;writing-mode:lr-tb;text-anchor:middle;font-family:Serif;-inkscape-font-specification:Serif"
             y="55.78997"
             x="58.093288"
             height="53.773582"
             width="161.32074"
             id="rect4049" /></flowRegion><flowPara
           id="flowPara4051">kg</flowPara></flowRoot>      <path
         sodipodi:nodetypes="zzzzzzcszccz"
         inkscape:connector-curvature="0"
         id="path4053"
         d="m 248.5625,59.874987 c -0.17944,7.73684 10.20751,12.68057 11.125,15.46875 0.91748,2.78819 1.06941,0.51526 0,3.9375 -1.06941,3.42224 -19.56838,10.78876 -14.6875,18.09375 4.88088,7.305003 15,9.987183 15,14.987183 0,5 -9.86746,5.83806 -10,10.01282 -0.13254,4.17476 7.07084,8.22198 9.6875,10 l 0.3125,0 c 10,0 18.1402,-18.53101 19,-40.012813 0.8598,-21.48181 -9,-50 -19,-49.98719 l 0,0 c -2,2.98719 -11.25806,9.76317 -11.4375,17.5 z"
         style="fill:#6fff6f;fill-opacity:1;stroke:#000000;stroke-width:2.5;stroke-miterlimit:4;stroke-opacity:1" />
    </g>
    <g
       transform="translate(0,504)"
       id="g4055">
      <path
         style="fill:#ffb380;fill-opacity:1;stroke:#000000;stroke-width:2.5;stroke-miterlimit:4;stroke-opacity:1"
         d="m 321,42.362183 c 9,10 14,36 14,51 0,14.999997 -1,24.999997 -14,38.999997 5,0 64,0 68.6875,0.0128 l 0.3125,0 c 10,0 18.1402,-18.53101 19,-40.012813 0.8598,-21.48181 -9,-50 -19,-49.98719 l 0,0 c -7,-0.01279 -64,-0.0128 -69,-0.01279 z"
         id="path4057"
         inkscape:connector-curvature="0"
         sodipodi:nodetypes="czccszccc" />
      <path
         sodipodi:nodetypes="czccszccc"
         inkscape:connector-curvature="0"
         id="path4093"
         d="m 261,42.362183 c 9,10 14,36 14,51 0,14.999997 -1,24.999997 -14,38.999997 5,0 64,0 68.6875,0.0128 l 0.3125,0 c 10,0 18.1402,-18.53101 19,-40.012813 0.8598,-21.48181 -9,-50 -19,-49.98719 l 0,0 c -7,-0.01279 -64,-0.0128 -69,-0.01279 z"
         style="fill:#f78484;fill-opacity:1;stroke:#000000;stroke-width:2.5;stroke-miterlimit:4;stroke-opacity:1" />
      <path
         sodipodi:nodetypes="zzzzzzcsssscz"
         inkscape:connector-curvature="0"
         id="path4059"
         d="m 248.5625,59.875 c -0.17944,7.736836 10.20751,12.680568 11.125,15.46875 0.91748,2.788182 1.06941,0.515261 0,3.9375 C 258.61809,82.703489 240.11912,90.070003 245,97.375 c 4.88088,7.305 15,9.98718 15,14.98718 0,5 -9.86746,5.83806 -10,10.01282 -0.13254,4.17476 7.07084,8.22198 9.6875,10 l 258.3125,0 c 22.16,0 40,-17.84 40,-40 l 0,-10 c 0,-22.16 -17.84,-40 -40,-40 l -258,0 c -2,2.987183 -11.25806,9.763164 -11.4375,17.5 z"
         style="fill:none;stroke:#000000;stroke-width:2.5;stroke-miterlimit:4;stroke-opacity:1" />
      <path
         style="fill:#4cff4c;fill-opacity:1;stroke:#000000;stroke-width:2.5;stroke-miterlimit:4;stroke-opacity:1"
         d="m 232.31038,59.875 c -0.17944,7.736836 10.20751,12.680568 11.125,15.46875 0.91748,2.788182 1.06941,0.515261 0,3.9375 -1.06941,3.422239 -19.56838,10.788753 -14.6875,18.09375 4.88088,7.305 15,9.98718 15,14.98718 0,5 -9.86746,5.83806 -10,10.01282 -0.13254,4.17476 7.07084,8.22198 9.6875,10 l -121.6875,0 c -22.16,0 -40,-17.84 -40,-40 l 0,-10 c 0,-22.16 17.84,-40 40,-40 l 122,0 c -2,2.987183 -11.25806,9.763164 -11.4375,17.5 z"
         id="path4061"
         inkscape:connector-curvature="0"
         sodipodi:nodetypes="zzzzzzcsssscz" />
      <rect
         style="fill:#ffffff;fill-opacity:1;stroke:none;filter:url(#filter3998)"
         id="rect4063"
         width="120"
         height="60"
         x="100"
         y="58.362183"
         ry="0" />
      <flowRoot
         transform="matrix(1.6736842,0,0,1.6736842,-79.355884,-51.012607)"
         style="font-size:39.99999619px;font-style:normal;font-variant:normal;font-weight:normal;font-stretch:normal;text-align:center;line-height:125%;letter-spacing:0px;word-spacing:0px;writing-mode:lr-tb;text-anchor:middle;fill:#000000;fill-opacity:1;stroke:none;font-family:Serif;-inkscape-font-specification:Serif"
         id="flowRoot4065"
         xml:space="preserve"><flowRegion
           id="flowRegion4067"><rect
             style="font-size:39.99999619px;font-style:normal;font-variant:normal;font-weight:normal;font-stretch:normal;text-align:center;line-height:125%;writing-mode:lr-tb;text-anchor:middle;font-family:Serif;-inkscape-font-specification:Serif"
             y="57.361923"
             x="104.55079"
             height="56.063465"
             width="77.781746"
             id="rect4069" /></flowRegion><flowPara
           id="flowPara4071">1.5</flowPara></flowRoot>      <rect
         ry="0"
         y="58.362183"
         x="300"
         height="60"
         width="120"
         id="rect4073"
         style="fill:#ffffff;fill-opacity:1;stroke:none;filter:url(#filter3998)" />
      <flowRoot
         xml:space="preserve"
         id="flowRoot4075"
         style="font-size:39.99999618999999740px;font-style:normal;font-variant:normal;font-weight:normal;font-stretch:normal;text-align:center;line-height:125%;letter-spacing:0px;word-spacing:0px;writing-mode:lr-tb;text-anchor:middle;fill:#9a0000;fill-opacity:1;stroke:none;font-family:Serif;-inkscape-font-specification:Serif"
         transform="matrix(1.6736842,0,0,1.6736842,128.77018,-48.345173)"><flowRegion
           id="flowRegion4077"><rect
             id="rect4079"
             width="161.32074"
             height="53.773582"
             x="58.093288"
             y="55.78997"
             style="font-size:39.99999618999999740px;font-style:normal;font-variant:normal;font-weight:normal;font-stretch:normal;text-align:center;line-height:125%;writing-mode:lr-tb;text-anchor:middle;font-family:Serif;-inkscape-font-specification:Serif;fill:#9a0000;fill-opacity:1" /></flowRegion><flowPara
           id="flowPara4081">0.25</flowPara></flowRoot>      <flowRoot
         transform="matrix(1.6736842,0,0,1.6736842,388.77018,-48.345173)"
         style="font-size:39.99999619px;font-style:normal;font-variant:normal;font-weight:normal;font-stretch:normal;text-align:center;line-height:125%;letter-spacing:0px;word-spacing:0px;writing-mode:lr-tb;text-anchor:middle;fill:#000000;fill-opacity:1;stroke:none;font-family:Serif;-inkscape-font-specification:Serif"
         id="flowRoot4083"
         xml:space="preserve"><flowRegion
           id="flowRegion4085"><rect
             style="font-size:39.99999619px;font-style:normal;font-variant:normal;font-weight:normal;font-stretch:normal;text-align:center;line-height:125%;writing-mode:lr-tb;text-anchor:middle;font-family:Serif;-inkscape-font-specification:Serif"
             y="55.78997"
             x="58.093288"
             height="53.773582"
             width="161.32074"
             id="rect4087" /></flowRegion><flowPara
           id="flowPara4089">kg</flowPara></flowRoot>      <path
         sodipodi:nodetypes="zzzzzzcszccz"
         inkscape:connector-curvature="0"
         id="path4091"
         d="m 248.5625,59.874987 c -0.17944,7.73684 10.20751,12.68057 11.125,15.46875 0.91748,2.78819 1.06941,0.51526 0,3.9375 -1.06941,3.42224 -19.56838,10.78876 -14.6875,18.09375 4.88088,7.305003 15,9.987183 15,14.987183 0,5 -9.86746,5.83806 -10,10.01282 -0.13254,4.17476 7.07084,8.22198 9.6875,10 l 0.3125,0 c 10,0 18.1402,-18.53101 19,-40.012813 0.8598,-21.48181 -9,-50 -19,-49.98719 l 0,0 c -2,2.98719 -11.25806,9.76317 -11.4375,17.5 z"
         style="fill:#6fff6f;fill-opacity:1;stroke:#000000;stroke-width:2.5;stroke-miterlimit:4;stroke-opacity:1" />
    </g>
    <text
       xml:space="preserve"
       style="font-size:40px;font-style:normal;font-weight:normal;line-height:125%;letter-spacing:0px;word-spacing:0px;fill:#000000;fill-opacity:1;stroke:none;font-family:Sans"
       x="98.571426"
       y="200.93361"
       id="text4135"
       sodipodi:linespacing="125%"><tspan
         sodipodi:role="line"
         id="tspan4137"
         x="98.571426"
         y="200.93361" /></text>
    <text
       xml:space="preserve"
       style="font-size:18px;font-style:normal;font-weight:normal;line-height:125%;letter-spacing:0px;word-spacing:0px;fill:#000000;fill-opacity:1;stroke:none;font-family:Sans"
       x="82"
       y="52.362183"
       id="text4139"
       sodipodi:linespacing="125%"><tspan
         sodipodi:role="line"
         id="tspan4141"
         x="82"
         y="52.362183">this product has not been ordered at all</tspan></text>
    <text
       sodipodi:linespacing="125%"
       id="text4143"
       y="212.36218"
       x="82"
       style="font-size:18px;font-style:normal;font-weight:normal;line-height:125%;letter-spacing:0px;word-spacing:0px;fill:#000000;fill-opacity:1;stroke:none;font-family:Sans"
       xml:space="preserve"><tspan
         y="212.36218"
         x="82"
         id="tspan4145"
         sodipodi:role="line">1.5kg has been ordered, and the pack is full</tspan></text>
    <text
       xml:space="preserve"
       style="font-size:18px;font-style:normal;font-weight:normal;line-height:125%;letter-spacing:0px;word-spacing:0px;fill:#000000;fill-opacity:1;stroke:none;font-family:Sans"
       x="82"
       y="372.36218"
       id="text4147"
       sodipodi:linespacing="125%"><tspan
         sodipodi:role="line"
         id="tspan4149"
         x="82"
         y="372.36218">1.65kg has been ordered, you have 0.15kg in a non-full pack</tspan></text>
    <text
       sodipodi:linespacing="125%"
       id="text4151"
       y="532.36218"
       x="82"
       style="font-size:18px;font-style:normal;font-weight:normal;line-height:125%;letter-spacing:0px;word-spacing:0px;fill:#000000;fill-opacity:1;stroke:none;font-family:Sans"
       xml:space="preserve"><tspan
         y="532.36218"
         x="82"
         id="tspan4153"
         sodipodi:role="line">1.75kg ordered, you have 0.15kg in non-full pack, 0.1kg tolerance</tspan></text>
    <g
       id="g4195"
       transform="translate(0,664)">
      <path
         sodipodi:nodetypes="czccszccc"
         inkscape:connector-curvature="0"
         id="path4197"
         d="m 261,42.362183 c 9,10 14,36 14,51 0,14.999997 -1,24.999997 -14,38.999997 5,0 144,0 148.6875,0.0128 l 0.3125,0 c 10,0 18.1402,-18.53101 19,-40.012813 0.8598,-21.48181 -9,-50 -19,-49.98719 l 0,0 c -7,-0.01279 -144,-0.0128 -149,-0.01279 z"
         style="fill:#ffb380;fill-opacity:1;stroke:#000000;stroke-width:2.5;stroke-miterlimit:4;stroke-opacity:1" />
      <path
         style="fill:none;stroke:#000000;stroke-width:2.5;stroke-miterlimit:4;stroke-opacity:1"
         d="m 248.5625,59.875 c -0.17944,7.736836 10.20751,12.680568 11.125,15.46875 0.91748,2.788182 1.06941,0.515261 0,3.9375 C 258.61809,82.703489 240.11912,90.070003 245,97.375 c 4.88088,7.305 15,9.98718 15,14.98718 0,5 -9.86746,5.83806 -10,10.01282 -0.13254,4.17476 7.07084,8.22198 9.6875,10 l 258.3125,0 c 22.16,0 40,-17.84 40,-40 l 0,-10 c 0,-22.16 -17.84,-40 -40,-40 l -258,0 c -2,2.987183 -11.25806,9.763164 -11.4375,17.5 z"
         id="path4201"
         inkscape:connector-curvature="0"
         sodipodi:nodetypes="zzzzzzcsssscz" />
      <path
         sodipodi:nodetypes="zzzzzzcsssscz"
         inkscape:connector-curvature="0"
         id="path4203"
         d="m 232.31038,59.875 c -0.17944,7.736836 10.20751,12.680568 11.125,15.46875 0.91748,2.788182 1.06941,0.515261 0,3.9375 -1.06941,3.422239 -19.56838,10.788753 -14.6875,18.09375 4.88088,7.305 15,9.98718 15,14.98718 0,5 -9.86746,5.83806 -10,10.01282 -0.13254,4.17476 7.07084,8.22198 9.6875,10 l -121.6875,0 c -22.16,0 -40,-17.84 -40,-40 l 0,-10 c 0,-22.16 17.84,-40 40,-40 l 122,0 c -2,2.987183 -11.25806,9.763164 -11.4375,17.5 z"
         style="fill:#4cff4c;fill-opacity:1;stroke:#000000;stroke-width:2.5;stroke-miterlimit:4;stroke-opacity:1" />
      <rect
         ry="0"
         y="58.362183"
         x="100"
         height="60"
         width="120"
         id="rect4205"
         style="fill:#ffffff;fill-opacity:1;stroke:none;filter:url(#filter3998)" />
      <flowRoot
         xml:space="preserve"
         id="flowRoot4207"
         style="font-size:39.99999619px;font-style:normal;font-variant:normal;font-weight:normal;font-stretch:normal;text-align:center;line-height:125%;letter-spacing:0px;word-spacing:0px;writing-mode:lr-tb;text-anchor:middle;fill:#000000;fill-opacity:1;stroke:none;font-family:Serif;-inkscape-font-specification:Serif"
         transform="matrix(1.6736842,0,0,1.6736842,-79.355884,-51.012607)"><flowRegion
           id="flowRegion4209"><rect
             id="rect4211"
             width="77.781746"
             height="56.063465"
             x="104.55079"
             y="57.361923"
             style="font-size:39.99999619px;font-style:normal;font-variant:normal;font-weight:normal;font-stretch:normal;text-align:center;line-height:125%;writing-mode:lr-tb;text-anchor:middle;font-family:Serif;-inkscape-font-specification:Serif" /></flowRegion><flowPara
           id="flowPara4213">1.5</flowPara></flowRoot>      <flowRoot
         transform="matrix(1.6736842,0,0,1.6736842,128.77018,-48.345173)"
         style="font-size:39.99999619px;font-style:normal;font-variant:normal;font-weight:normal;font-stretch:normal;text-align:center;line-height:125%;letter-spacing:0px;word-spacing:0px;writing-mode:lr-tb;text-anchor:middle;fill:#9a0000;fill-opacity:1;stroke:none;font-family:Serif;-inkscape-font-specification:Serif"
         id="flowRoot4217"
         xml:space="preserve"><flowRegion
           id="flowRegion4219"><rect
             style="font-size:39.99999619px;font-style:normal;font-variant:normal;font-weight:normal;font-stretch:normal;text-align:center;line-height:125%;writing-mode:lr-tb;text-anchor:middle;fill:#9a0000;fill-opacity:1;font-family:Serif;-inkscape-font-specification:Serif"
             y="55.78997"
             x="58.093288"
             height="53.773582"
             width="161.32074"
             id="rect4221" /></flowRegion><flowPara
           id="flowPara4223" /></flowRoot>      <flowRoot
         xml:space="preserve"
         id="flowRoot4225"
         style="font-size:39.99999619px;font-style:normal;font-variant:normal;font-weight:normal;font-stretch:normal;text-align:center;line-height:125%;letter-spacing:0px;word-spacing:0px;writing-mode:lr-tb;text-anchor:middle;fill:#000000;fill-opacity:1;stroke:none;font-family:Serif;-inkscape-font-specification:Serif"
         transform="matrix(1.6736842,0,0,1.6736842,388.77018,-48.345173)"><flowRegion
           id="flowRegion4227"><rect
             id="rect4229"
             width="161.32074"
             height="53.773582"
             x="58.093288"
             y="55.78997"
             style="font-size:39.99999619px;font-style:normal;font-variant:normal;font-weight:normal;font-stretch:normal;text-align:center;line-height:125%;writing-mode:lr-tb;text-anchor:middle;font-family:Serif;-inkscape-font-specification:Serif" /></flowRegion><flowPara
           id="flowPara4231">kg</flowPara></flowRoot>      <path
         style="fill:#6fff6f;fill-opacity:1;stroke:#000000;stroke-width:2.5;stroke-miterlimit:4;stroke-opacity:1"
         d="m 248.5625,59.874987 c -0.17944,7.73684 10.20751,12.68057 11.125,15.46875 0.91748,2.78819 1.06941,0.51526 0,3.9375 -1.06941,3.42224 -19.56838,10.78876 -14.6875,18.09375 4.88088,7.305003 15,9.987183 15,14.987183 0,5 -9.86746,5.83806 -10,10.01282 -0.13254,4.17476 7.07084,8.22198 9.6875,10 l 0.3125,0 c 10,0 18.1402,-18.53101 19,-40.012813 0.8598,-21.48181 -9,-50 -19,-49.98719 l 0,0 c -2,2.98719 -11.25806,9.76317 -11.4375,17.5 z"
         id="path4233"
         inkscape:connector-curvature="0"
         sodipodi:nodetypes="zzzzzzcszccz" />
    </g>
    <text
       xml:space="preserve"
       style="font-size:18px;font-style:normal;font-weight:normal;line-height:125%;letter-spacing:0px;word-spacing:0px;fill:#000000;fill-opacity:1;stroke:none;font-family:Sans"
       x="82"
       y="692.36218"
       id="text4235"
       sodipodi:linespacing="125%"><tspan
         sodipodi:role="line"
         id="tspan4237"
         x="82"
         y="692.36218">1.75kg has been ordered, 0.25kg in tolerance</tspan></text>
    <g
       id="g3873"
       transform="translate(0,120)"
       inkscape:export-filename="/home/wvengen/Documents/voko/remaining_units_blocks.png"
       inkscape:export-xdpi="90"
       inkscape:export-ydpi="90">
      <rect
         ry="20.012033"
         y="892.33813"
         x="79.975929"
         height="80.048134"
         width="442.19098"
         id="rect3090"
         style="fill:none;stroke:#000000;stroke-width:2.45186543;stroke-miterlimit:4;stroke-opacity:1;stroke-dasharray:none" />
      <rect
         ry="19.993299"
         y="902.36218"
         x="90"
         height="60"
         width="60"
         id="rect3860"
         style="fill:#425dff;fill-opacity:1;stroke:#000000;stroke-width:2.5;stroke-linecap:round;stroke-linejoin:miter;stroke-miterlimit:4;stroke-opacity:1;stroke-dasharray:none" />
      <rect
         style="fill:#425dff;fill-opacity:1;stroke:#000000;stroke-width:2.5;stroke-linecap:round;stroke-linejoin:miter;stroke-miterlimit:4;stroke-opacity:1;stroke-dasharray:none"
         id="rect3862"
         width="60"
         height="60"
         x="162"
         y="902.36218"
         ry="19.993299" />
      <rect
         ry="19.993299"
         y="902.36218"
         x="234"
         height="60"
         width="60"
         id="rect3865"
         style="fill:#425dff;fill-opacity:1;stroke:#000000;stroke-width:2.5;stroke-linecap:round;stroke-linejoin:miter;stroke-miterlimit:4;stroke-opacity:1;stroke-dasharray:none" />
      <rect
         style="fill:none;stroke:#000000;stroke-width:2.5;stroke-linecap:round;stroke-linejoin:miter;stroke-miterlimit:4;stroke-opacity:1;stroke-dasharray:none"
         id="rect3867"
         width="60"
         height="60"
         x="306"
         y="902.36218"
         ry="19.993299" />
      <rect
         ry="19.993299"
         y="902.36218"
         x="378"
         height="60"
         width="60"
         id="rect3869"
         style="fill:none;stroke:#000000;stroke-width:2.5;stroke-linecap:round;stroke-linejoin:miter;stroke-miterlimit:4;stroke-opacity:1;stroke-dasharray:none" />
      <rect
         style="fill:none;stroke:#000000;stroke-width:2.5;stroke-linecap:round;stroke-linejoin:miter;stroke-miterlimit:4;stroke-opacity:1;stroke-dasharray:none"
         id="rect3871"
         width="60"
         height="60"
         x="450"
         y="902.36218"
         ry="19.993299" />
    </g>
    <g
       id="g3882"
       transform="translate(0,100)"
       inkscape:export-filename="/home/wvengen/Documents/voko/remaining_units_blocks.png"
       inkscape:export-xdpi="90"
       inkscape:export-ydpi="90">
      <rect
         style="fill:none;stroke:#000000;stroke-width:2.03557491;stroke-miterlimit:4;stroke-opacity:1;stroke-dasharray:none"
         id="rect3884"
         width="303.20621"
         height="80.464424"
         x="79.767784"
         y="1012.13"
         ry="20.116106" />
      <rect
         style="fill:#425dff;fill-opacity:1;stroke:#000000;stroke-width:2.5;stroke-linecap:round;stroke-linejoin:miter;stroke-miterlimit:4;stroke-opacity:1;stroke-dasharray:none"
         id="rect3886"
         width="60"
         height="60"
         x="90"
         y="1022.3622"
         ry="19.993299" />
      <rect
         ry="19.993299"
         y="1022.3622"
         x="162"
         height="60"
         width="60"
         id="rect3888"
         style="fill:#425dff;fill-opacity:1;stroke:#000000;stroke-width:2.5;stroke-linecap:round;stroke-linejoin:miter;stroke-miterlimit:4;stroke-opacity:1;stroke-dasharray:none" />
      <rect
         style="fill:none;stroke:#000000;stroke-width:2.5;stroke-linecap:round;stroke-linejoin:miter;stroke-miterlimit:4;stroke-opacity:1;stroke-dasharray:none"
         id="rect3890"
         width="60"
         height="60"
         x="234"
         y="1022.3622"
         ry="19.993299" />
      <rect
         ry="19.993299"
         y="1022.3622"
         x="306"
         height="60"
         width="60"
         id="rect3892"
         style="fill:none;stroke:#000000;stroke-width:2.5;stroke-linecap:round;stroke-linejoin:miter;stroke-miterlimit:4;stroke-opacity:1;stroke-dasharray:none" />
    </g>
    <g
       id="g3914"
       transform="matrix(0.49927712,0,0,0.49927712,39.431925,467.5099)"
       inkscape:export-filename="/home/wvengen/Documents/voko/remaining_units_blocks.png"
       inkscape:export-xdpi="90"
       inkscape:export-ydpi="90">
      <rect
         ry="18.68355"
         y="892.33813"
         x="79.975929"
         height="158.73332"
         width="442.19098"
         id="rect3916"
         style="fill:none;stroke:#000000;stroke-width:4.9108305;stroke-miterlimit:4;stroke-opacity:1;stroke-dasharray:none" />
      <rect
         ry="19.993299"
         y="902.36218"
         x="90"
         height="60"
         width="60"
         id="rect3918"
         style="fill:#425dff;fill-opacity:1;stroke:#000000;stroke-width:5.00723934;stroke-linecap:round;stroke-linejoin:miter;stroke-miterlimit:4;stroke-opacity:1;stroke-dasharray:none" />
      <rect
         style="fill:#425dff;fill-opacity:1;stroke:#000000;stroke-width:5.00723934;stroke-linecap:round;stroke-linejoin:miter;stroke-miterlimit:4;stroke-opacity:1;stroke-dasharray:none"
         id="rect3920"
         width="60"
         height="60"
         x="162"
         y="902.36218"
         ry="19.993299" />
      <rect
         ry="19.993299"
         y="902.36218"
         x="234"
         height="60"
         width="60"
         id="rect3922"
         style="fill:#425dff;fill-opacity:1;stroke:#000000;stroke-width:5.00723934;stroke-linecap:round;stroke-linejoin:miter;stroke-miterlimit:4;stroke-opacity:1;stroke-dasharray:none" />
      <rect
         style="fill:#425dff;stroke:#000000;stroke-width:5.00723933999999993;stroke-linecap:round;stroke-linejoin:miter;stroke-miterlimit:4;stroke-opacity:1;stroke-dasharray:none;fill-opacity:1"
         id="rect3924"
         width="60"
         height="60"
         x="306"
         y="902.36218"
         ry="19.993299" />
      <rect
         ry="19.993299"
         y="902.36218"
         x="378"
         height="60"
         width="60"
         id="rect3926"
         style="fill:#425dff;stroke:#000000;stroke-width:5.00723933999999993;stroke-linecap:round;stroke-linejoin:miter;stroke-miterlimit:4;stroke-opacity:1;stroke-dasharray:none;fill-opacity:1" />
      <rect
         style="fill:none;stroke:#000000;stroke-width:5.00723934;stroke-linecap:round;stroke-linejoin:miter;stroke-miterlimit:4;stroke-opacity:1;stroke-dasharray:none"
         id="rect3928"
         width="60"
         height="60"
         x="450"
         y="902.36218"
         ry="19.993299" />
      <rect
         ry="19.993299"
         y="978.47229"
         x="90.970955"
         height="60"
         width="60"
         id="rect3902"
         style="fill:none;fill-opacity:1;stroke:#000000;stroke-width:5.00723933999999993;stroke-linecap:round;stroke-linejoin:miter;stroke-miterlimit:4;stroke-opacity:1;stroke-dasharray:none" />
      <rect
         style="fill:none;fill-opacity:1;stroke:#000000;stroke-width:5.00723933999999993;stroke-linecap:round;stroke-linejoin:miter;stroke-miterlimit:4;stroke-opacity:1;stroke-dasharray:none"
         id="rect3904"
         width="60"
         height="60"
         x="162.9709"
         y="978.47229"
         ry="19.993299" />
      <rect
         ry="19.993299"
         y="978.47229"
         x="234.97089"
         height="60"
         width="60"
         id="rect3906"
         style="fill:none;fill-opacity:1;stroke:#000000;stroke-width:5.00723933999999993;stroke-linecap:round;stroke-linejoin:miter;stroke-miterlimit:4;stroke-opacity:1;stroke-dasharray:none" />
      <rect
         style="fill:none;stroke:#000000;stroke-width:5.00723934;stroke-linecap:round;stroke-linejoin:miter;stroke-miterlimit:4;stroke-opacity:1;stroke-dasharray:none"
         id="rect3908"
         width="60"
         height="60"
         x="306.97086"
         y="978.47229"
         ry="19.993299" />
      <rect
         ry="19.993299"
         y="978.47229"
         x="378.97086"
         height="60"
         width="60"
         id="rect3910"
         style="fill:none;stroke:#000000;stroke-width:5.00723934;stroke-linecap:round;stroke-linejoin:miter;stroke-miterlimit:4;stroke-opacity:1;stroke-dasharray:none" />
    </g>
  </g>
</svg>
