<?xml version="1.0" encoding="UTF-8" standalone="no"?>
<svg
   xmlns:dc="http://purl.org/dc/elements/1.1/"
   xmlns:cc="http://creativecommons.org/ns#"
   xmlns:rdf="http://www.w3.org/1999/02/22-rdf-syntax-ns#"
   xmlns:svg="http://www.w3.org/2000/svg"
   xmlns="http://www.w3.org/2000/svg"
   xmlns:sodipodi="http://sodipodi.sourceforge.net/DTD/sodipodi-0.dtd"
   xmlns:inkscape="http://www.inkscape.org/namespaces/inkscape"
   id="svg4670"
   height="150"
   width="150"
   version="1.1"
   inkscape:version="0.48.4 r9939"
   sodipodi:docname="apple_card.svg">
  <defs
     id="defs3407" />
  <sodipodi:namedview
     pagecolor="#ffffff"
     bordercolor="#666666"
     borderopacity="1"
     objecttolerance="10"
     gridtolerance="10"
     guidetolerance="10"
     inkscape:pageopacity="0"
     inkscape:pageshadow="2"
     inkscape:window-width="1174"
     inkscape:window-height="621"
     id="namedview3405"
     showgrid="false"
     inkscape:zoom="1.2334157"
     inkscape:cx="-13.281655"
     inkscape:cy="75.204526"
     inkscape:window-x="39"
     inkscape:window-y="83"
     inkscape:window-maximized="0"
     inkscape:current-layer="svg4670"
     fit-margin-top="0"
     fit-margin-left="0"
     fit-margin-right="0"
     fit-margin-bottom="0" />
  <g
     id="layer1"
     style="fill:#ff6600"
     transform="translate(-65.465055,22.027379)">
    <path
       id="path4652"
       d="m 82.406449,16.026935 c -9.38502,0 -16.940247,7.555415 -16.940247,16.94007 V 37.41377 H 217.1865 v -4.446765 c 0,-9.384655 -7.5554,-16.94007 -16.94025,-16.94007 H 82.407599 z M 65.466202,53.29467 v 45.73769 c 0,9.38483 7.555227,16.94026 16.940247,16.94026 H 200.24509 c 9.38485,0 16.94026,-7.55524 16.94026,-16.94026 V 53.29467 H 65.465055 z M 77.324299,82.832989 H 127.82739 V 89.92664 H 77.324299 v -7.093651 z m 0,10.799311 H 99.34614 v 7.09366 H 77.324299 V 93.6323 z m 28.481261,0 h 22.02183 v 7.09366 H 105.80556 V 93.6323 z"
       inkscape:connector-curvature="0" />
    <g
       transform="matrix(0.61387561,0,0,0.61387561,133.08382,39.512251)"
       id="Layer_1">
      <g
         style="fill-rule:evenodd;stroke:#000000;stroke-width:0.05864379;stroke-miterlimit:10"
         stroke-miterlimit="10"
         clip-rule="evenodd"
         id="g3866">
        <path
           inkscape:connector-curvature="0"
           d="m 63.714,34.589 c -4.176,-1.764 -9.108,-2.232 -15.084,-1.548 -6.12,0.684 -14.508,1.332 -20.592,5.832 -6.12,4.428 -12.78,11.304 -15.408,20.628 -2.7,9.36 -3.492,22.715 -0.288,34.776 3.312,11.951 10.944,28.115 19.692,36.287 8.604,7.885 20.88,10.297 31.68,11.412 10.728,1.117 22.968,-0.898 32.292,-4.643 9.18,-3.961 17.279,-10.008 22.788,-18.145 5.363,-8.279 9.144,-19.584 9.54,-30.457 0.18,-10.906 -3.168,-25.487 -7.704,-34.163 -4.536,-8.712 -11.772,-13.86 -19.08,-17.532 -7.416,-3.708 -15.588,-5.04 -24.912,-4.284 -0.576,-1.872 -0.685,-3.924 -0.324,-6.156 0.252,-2.304 0.972,-4.716 2.16,-7.38 0.396,-1.62 0.036,-2.952 -1.224,-3.996 -1.368,-1.188 -4.717,-2.664 -6.156,-2.484 -1.404,0.144 -2.124,1.224 -2.16,3.384 0.54,2.844 1.188,5.616 1.548,8.604 0.468,2.952 0.648,5.832 0.937,8.928 C 68.539,24.94 63.715,17.92 56.659,12.448 49.459,6.904 38.803,2.26 29.263,0.748 19.651,-0.836 10.183,0.028 0.031,3.196 c 5.688,7.452 12.132,13.248 20.016,17.532 7.812,4.212 18.252,6.048 26.46,8.028 8.1,2.016 15.228,3.06 21.815,3.672 -1.512,0.729 -3.06,1.45 -4.608,2.169 z"
           id="path3868"
           style="stroke-width:0.05864379" />
        <path
           style="fill:#ffffff;stroke-width:0.05864379"
           inkscape:connector-curvature="0"
           d="m 69.869,39.197 c -2.052,-2.268 -5.399,-3.708 -10.476,-4.32 -5.112,-0.792 -13.14,-1.98 -19.656,0.612 -6.66,2.7 -14.796,8.208 -19.404,15.408 -4.68,7.056 -7.848,17.604 -7.992,27.071 -0.144,9.576 2.412,19.512 7.38,29.232 4.86,9.432 10.476,22.355 22.14,27.396 11.772,5.004 34.272,6.047 47.375,2.447 12.889,-3.816 23.761,-14.615 29.845,-24.623 5.867,-10.189 6.479,-24.949 5.867,-35.389 -0.72,-10.512 -4.823,-19.656 -9.54,-26.46 -4.859,-6.732 -12.312,-10.872 -18.756,-13.536 -6.516,-2.664 -12.888,-3.528 -19.691,-2.448 -0.504,1.548 -0.864,3.24 -0.937,5.22 -0.144,1.908 0,4.068 0.288,6.48 4.248,-1.656 6.769,-2.376 7.416,-2.16 0.576,0.252 -2.268,2.304 -3.384,3.384 -1.08,0.9 -1.512,2.448 -3.384,2.16 -1.98,-0.504 -7.668,-3.384 -8.316,-4.32 -0.756,-0.864 0.576,-1.224 3.996,-0.936 -0.901,-1.736 -1.836,-3.464 -2.773,-5.228 z"
           id="path3870" />
        <path
           style="fill:#ffffff;stroke-width:0.05864379"
           inkscape:connector-curvature="0"
           d="m 72.93,41.646 c 0,-2.304 0,-5.22 -0.288,-8.604 -0.324,-3.528 -0.828,-9 -1.224,-11.988 -0.433,-3.06 -1.584,-5.112 -1.225,-6.156 0.252,-1.152 1.872,-0.792 3.061,-0.324 1.115,0.324 3.275,1.116 3.708,2.772 0.323,1.584 -0.792,3.996 -1.261,7.092 -0.468,3.024 -1.151,7.74 -1.224,11.376 -0.072,3.564 0.288,6.948 0.937,10.152 -0.828,-1.441 -1.656,-2.881 -2.484,-4.32 z"
           id="path3872" />
        <path
           style="fill:#ffffff;stroke-width:0.05864379"
           inkscape:connector-curvature="0"
           d="M 68.321,30.593 C 67.277,24.905 63.893,19.829 58.169,15.221 52.193,10.505 43.121,4.781 33.869,2.909 24.617,1.037 14.501,1.289 3.125,3.809 c 8.892,1.368 17.604,3.528 26.424,6.48 8.82,2.844 19.584,7.632 26.172,11.052 6.517,3.348 10.585,6.48 12.6,9.252 z"
           id="path3874" />
        <path
           style="fill:#ffffff;stroke-width:0.05864379"
           inkscape:connector-curvature="0"
           d="M 66.81,30.881 C 63.426,28.001 58.962,25.229 53.274,22.277 47.514,19.289 40.782,16.085 32.646,13.349 24.33,10.541 14.934,8.021 4.026,5.645 c 6.444,5.364 12.708,9.576 19.08,12.924 6.336,3.204 11.34,4.716 18.756,6.768 7.307,2.052 15.48,3.852 24.948,5.544 z"
           id="path3876" />
      </g>
    </g>
  </g>
  <metadata
     id="metadata3403">
    <rdf:RDF>
      <cc:Work>
        <dc:format>image/svg+xml</dc:format>
        <dc:type
           rdf:resource="http://purl.org/dc/dcmitype/StillImage" />
        <cc:license
           rdf:resource="http://creativecommons.org/licenses/publicdomain/" />
        <dc:publisher>
          <cc:Agent
             rdf:about="http://openclipart.org/">
            <dc:title>Openclipart</dc:title>
          </cc:Agent>
        </dc:publisher>
        <dc:title></dc:title>
        <dc:date>2013-02-19T12:05:20</dc:date>
        <dc:description>Simple icon</dc:description>
        <dc:source>http://openclipart.org/detail/175216/simple-icons-set-by-areksvg-175216</dc:source>
        <dc:creator>
          <cc:Agent>
            <dc:title>areksvg</dc:title>
          </cc:Agent>
        </dc:creator>
        <dc:subject>
          <rdf:Bag>
            <rdf:li>card</rdf:li>
            <rdf:li>clip art</rdf:li>
            <rdf:li>clipart</rdf:li>
            <rdf:li>commerce</rdf:li>
            <rdf:li>credit</rdf:li>
            <rdf:li>delivery</rdf:li>
            <rdf:li>gift</rdf:li>
            <rdf:li>mail</rdf:li>
            <rdf:li>shipment</rdf:li>
            <rdf:li>shop icon</rdf:li>
          </rdf:Bag>
        </dc:subject>
      </cc:Work>
      <cc:License
         rdf:about="http://creativecommons.org/licenses/publicdomain/">
        <cc:permits
           rdf:resource="http://creativecommons.org/ns#Reproduction" />
        <cc:permits
           rdf:resource="http://creativecommons.org/ns#Distribution" />
        <cc:permits
           rdf:resource="http://creativecommons.org/ns#DerivativeWorks" />
      </cc:License>
    </rdf:RDF>
  </metadata>
</svg>
